# xmcd
#
# Track frame offsets:
#	150
#	14239
#	28328
#	45720
#	58822
#	72982
#	87518
#	103104
#	111020
#	129366
#	140977
#	163873
#	173911
#	186117
#	198584
#	212058
#	228089
#
# Disc length: 3227
#
# Revision: 2
# Processed by: cddbd v1.5.1PL0 Copyright (c) Steve Scherf et al.
# Submitted via: audiograbber 1.83.01
# Normalized: r1:DSETVAR2
#
DISCID=060c9911
DTITLE=Various Artist - Deutsch Country and Trucker Weihnacht CD 1
DYEAR=1900
DGENRE=
TTITLE0=Jonny Hill - Süßer die Glocken
TTITLE1=Jonny Hill - Süßer die Glocken
TTITLE2=Hanna and Daana - Draußen fällt
TTITLE3=Frank Baum and Country Green - A
TTITLE4=Greyhounds - Das Weihnachtsfes
TTITLE5=Mike Tauer - Der helle Stern
TTITLE6=Tennessee - Weihnachtsfrau
TTITLE7=Jonny Hill - Leise rieselt der
TTITLE8=Kactus - Der Weihnachtsmann im
TTITLE9=Tom Astor - Tom Astor und der Fredeburger
TTITLE10=Jonny Hill - Gibt es einen Wei
TTITLE11=Truck Stop - Der Weihnachtsman
TTITLE12=Nashville Misic Company - Die
TTITLE13=Mike Hermann and Booze Company - Company
TTITLE14=Jonny Hill - Oh du fröhliche
TTITLE15=Linda Feller - Winterzeit - Ki
TTITLE16=Frank Baum and Country Green - S
EXTD=
EXTT0=
EXTT1=
EXTT2=
EXTT3=
EXTT4=
EXTT5=
EXTT6=
EXTT7=
EXTT8=
EXTT9=
EXTT10=
EXTT11=
EXTT12=
EXTT13=
EXTT14=
EXTT15=
EXTT16=
PLAYORDER=
